<?xml version="1.0" encoding="UTF-8"?>
<svg width="186px" height="42px" viewBox="0 0 186 42" version="1.1" xmlns="http://www.w3.org/2000/svg" xmlns:xlink="http://www.w3.org/1999/xlink">
    <title>Group 6</title>
    <defs>
        <linearGradient x1="50%" y1="0%" x2="50%" y2="100%" id="linearGradient-1">
            <stop stop-color="#DE6BD6" offset="0%"></stop>
            <stop stop-color="#5B69C6" offset="100%"></stop>
        </linearGradient>
    </defs>
    <g id="Дизайн" stroke="none" stroke-width="1" fill="none" fill-rule="evenodd">
        <g id="NaRepite-1" transform="translate(-204, -9)">
            <g id="Group-15" transform="translate(204, 9)">
                <path d="M0,20 L1,20 L1,22 L0,22 Z M15,16 L16,16 L16,26 L15,26 Z M30,7 L31,7 L31,35 L30,35 Z M45,19 L46,19 L46,23 L45,23 Z M60,16 L61,16 L61,26 L60,26 Z M3,20 L4,20 L4,22 L3,22 Z M18,18 L19,18 L19,24 L18,24 Z M33,1 L34,1 L34,41 L33,41 Z M48,20 L49,20 L49,22 L48,22 Z M63,19 L64,19 L64,23 L63,23 Z M6,18 L7,18 L7,24 L6,24 Z M21,14 L22,14 L22,28 L21,28 Z M36,10 L37,10 L37,32 L36,32 Z M51,17 L52,17 L52,25 L51,25 Z M66,20 L67,20 L67,22 L66,22 Z M9,17 L10,17 L10,25 L9,25 Z M24,8 L25,8 L25,34 L24,34 Z M39,15 L40,15 L40,27 L39,27 Z M54,12 L55,12 L55,30 L54,30 Z M69,20 L70,20 L70,22 L69,22 Z M12,12 L13,12 L13,30 L12,30 Z M27,3 L28,3 L28,39 L27,39 Z M42,20 L43,20 L43,22 L42,22 Z M57,14 L58,14 L58,28 L57,28 Z" id="Combined-Shape" fill="url(#linearGradient-1)"></path>
                <text id="НА-РЕПИТЕ" fill-rule="nonzero" font-family="Sagewold-Regular, Sagewold" font-size="37" font-weight="normal" fill="#FFFFFF">
                    <tspan x="77" y="31">НА РЕПИТЕ</tspan>
                </text>
            </g>
        </g>
    </g>
</svg>