<?xml version="1.0"?>
<svg width="185px" height="40px" viewBox="0 0 185 40" version="1.1" xmlns="http://www.w3.org/2000/svg" xmlns:xlink="http://www.w3.org/1999/xlink">
    <title>На Репите</title>
    <defs>
        <linearGradient x1="50%" y1="0%" x2="50%" y2="100%" id="nrGrad">
            <stop stop-color="#3B5BDB" offset="0%"></stop>
            <stop stop-color="#141C4F" offset="100%"></stop>
        </linearGradient>
    </defs>
    <g stroke="none" stroke-width="1" fill="none" fill-rule="evenodd">
        <g transform="translate(-204, -10)">
            <g transform="translate(204, 10)">
                <path d="M0,19 L1,19 L1,21 L0,21 Z M15,15 L16,15 L16,25 L15,25 Z M30,6 L31,6 L31,34 L30,34 Z M45,18 L46,18 L46,22 L45,22 Z M60,15 L61,15 L61,25 L60,25 Z M3,19 L4,19 L4,21 L3,21 Z M18,17 L19,17 L19,23 L18,23 Z M33,0 L34,0 L34,40 L33,40 Z M48,19 L49,19 L49,21 L48,21 Z M63,18 L64,18 L64,22 L63,22 Z M6,17 L7,17 L7,23 L6,23 Z M21,13 L22,13 L22,27 L21,27 Z M36,9 L37,9 L37,31 L36,31 Z M51,16 L52,16 L52,24 L51,24 Z M66,19 L67,19 L67,21 L66,21 Z M9,16 L10,16 L10,24 L9,24 Z M24,7 L25,7 L25,33 L24,33 Z M39,14 L40,14 L40,26 L39,26 Z M54,11 L55,11 L55,29 L54,29 Z M69,19 L70,19 L70,21 L69,21 Z M12,11 L13,11 L13,29 L12,29 Z M27,2 L28,2 L28,38 L27,38 Z M42,19 L43,19 L43,21 L42,21 Z M57,13 L58,13 L58,27 L57,27 Z" fill="url(#nrGrad)"></path>
                <g transform="translate(78.1562, 9.1875)" fill="#19112A" fill-rule="nonzero">
                    <polygon points="0 0 3.46875 0 3.46875 8.671875 6.9375 8.671875 6.9375 0 10.40625 0 10.40625 20.8125 6.9375 20.8125 6.9375 12.140625 3.46875 12.140625 3.46875 20.8125 0 20.8125"></polygon>
                    <path d="M18.8974609,13.875 L17.921875,3.46875 L16.9462891,13.875 L18.8974609,13.875 Z M23.125,20.8125 L19.65625,20.8125 L19.2768555,17.34375 L16.5668945,17.34375 L16.1875,20.8125 L12.71875,20.8125 L14.9951172,0 L20.8486328,0 L23.125,20.8125 Z"></path>
                    <path d="M39.3125,3.46875 L35.84375,3.46875 L35.84375,10.40625 L39.3125,10.40625 L39.3125,3.46875 Z M42.78125,3.46875 L42.78125,10.40625 C42.78125,11.3697917 42.4409993,12.1888021 41.760498,12.8632812 C41.0799967,13.5377604 40.2639974,13.875 39.3125,13.875 L35.84375,13.875 L35.84375,20.8125 L32.375,20.8125 L32.375,0 L39.3125,0 C40.2639974,0 41.0799967,0.337239583 41.760498,1.01171875 C42.4409993,1.68619792 42.78125,2.50520833 42.78125,3.46875 Z"></path>
                    <polygon points="55.5 0 55.5 3.46875 48.5625 3.46875 48.5625 8.671875 54.34375 8.671875 54.34375 12.140625 48.5625 12.140625 48.5625 17.34375 55.5 17.34375 55.5 20.8125 45.09375 20.8125 45.09375 0"></polygon>
                    <polygon points="68.21875 20.8125 64.75 20.8125 64.75 3.46875 61.28125 3.46875 61.28125 20.8125 57.8125 20.8125 57.8125 0 68.21875 0"></polygon>
                    <polygon points="80.9375 0 80.9375 20.8125 77.46875 20.8125 77.46875 10.40625 74 20.8125 70.53125 20.8125 70.53125 0 74 0 74 10.40625 77.46875 0"></polygon>
                    <polygon points="86.71875 3.46875 83.25 3.46875 83.25 0 93.65625 0 93.65625 3.46875 90.1875 3.46875 90.1875 20.8125 86.71875 20.8125"></polygon>
                    <polygon points="106.375 0 106.375 3.46875 99.4375 3.46875 99.4375 8.671875 105.21875 8.671875 105.21875 12.140625 99.4375 12.140625 99.4375 17.34375 106.375 17.34375 106.375 20.8125 95.96875 20.8125 95.96875 0"></polygon>
                </g>
            </g>
        </g>
    </g>
</svg>